#!OML:ASF E:\emotionWalksFemale\Project 1\Capture day 1\Session 1\Female1.ASF
:FULLY-SPECIFIED
:DEGREES
395
root 7.83412 15.0849 39.6497 -176.46 -0.693398 -181.44
lowerback 6.8568 0.260231 -2.91985
upperback -4.11088 -0.0568931 -0.307598
thorax -8.1893 0.0917353 1.32837
lowerneck -3.45528 -2.75746 -6.41082
upperneck 8.48399 -3.9717 5.72044
head 3.69191 -2.04 2.89613
rclavicle -2.21148e-015 -7.00716e-015
rhumerus -49.1977 -8.34106 -72.8037
rradius 30.4103
rwrist 26.1247
rhand -0.282629 -51.7692
rfingers 7.12502
rthumb 25.3196 -440.109
lclavicle -2.21148e-015 -7.00716e-015
lhumerus -41.6289 6.18627 75.3815
lradius 36.6055
lwrist -12.1692
lhand -8.44053 -37.3266
lfingers 7.12502
lthumb 17.4849 -8.09292
rfemur -33.3037 7.78384 21.9933
rtibia 31.0779
rfoot -22.2098 -26.1648
rtoes 14.8266
lfemur 11.0295 -21.6847 -34.0093
ltibia 5.36399
lfoot -24.4191 20.792
ltoes -20.2927
396
root 7.84031 15.0792 39.5841 -176.359 -0.789234 -181.291
lowerback 6.89501 0.220785 -2.78442
upperback -4.16497 -0.0962782 -0.268028
thorax -8.26765 0.0672513 1.29965
lowerneck -3.6309 -2.72877 -6.32198
upperneck 8.7067 -3.92878 5.57487
head 3.79326 -2.02134 2.83113
rclavicle 2.15247e-015 -1.27222e-014
rhumerus -49.0057 -8.07082 -73.1285
rradius 29.8708
rwrist 26.0888
rhand -0.204476 -51.5997
rfingers 7.12502
rthumb 25.3945 -439.928
lclavicle 2.15247e-015 -1.27222e-014
lhumerus -41.3659 6.2824 75.6497
lradius 36.5583
lwrist -12.2981
lhand -8.18264 -37.6896
lfingers 7.12502
lthumb 17.7331 -8.47818
rfemur -33.4484 8.59535 21.8049
rtibia 30.3993
rfoot -22.3064 -26.5581
rtoes 17.6717
lfemur 11.9211 -21.4027 -33.7592
ltibia 3.79236
lfoot -23.7944 20.1942
ltoes -18.7541
397
root 7.84511 15.0799 39.5053 -176.367 -0.948924 -181.302
lowerback 6.91011 0.170042 -2.76181
upperback -4.17112 -0.165342 -0.29647
thorax -8.28008 0.0313259 1.2666
lowerneck -3.69404 -2.71051 -6.25667
upperneck 9.12909 -3.94226 5.72902
head 3.55473 -2.00212 2.5876
rclavicle 1.2424e-015 2.88238e-015
rhumerus -49.0745 -8.11678 -73.3534
rradius 29.6692
rwrist 25.7282
rhand -0.905722 -51.8137
rfingers 7.12502
rthumb 24.7226 -440.236
lclavicle 1.2424e-015 2.88238e-015
lhumerus -41.0813 6.38266 75.884
lradius 36.4348
lwrist -12.3863
lhand -9.44145 -38.3716
lfingers 7.12502
lthumb 16.5215 -9.05502
rfemur -33.4935 9.29949 21.4543
rtibia 29.8437
rfoot -22.5251 -27.1359
rtoes 21.1649
lfemur 13.5384 -21.1546 -33.7726
ltibia 1.21946
lfoot -22.4702 19.8674
ltoes -18.8263
398
root 7.84939 15.0785 39.4281 -176.266 -1.03748 -181.375
lowerback 6.89606 0.14676 -2.77098
upperback -4.25036 -0.206737 -0.334608
thorax -8.3561 0.0099347 1.2375
lowerneck -3.46943 -2.64737 -6.55547
upperneck 9.04765 -3.87318 5.97491
head 3.49849 -1.9728 2.71814
rclavicle -2.7364e-015 6.85807e-015
rhumerus -49.297 -8.16718 -73.5038
rradius 29.7336
rwrist 25.3921
rhand -1.62847 -52.1064
rfingers 7.12502
rthumb 24.0297 -440.622
lclavicle -2.7364e-015 6.85807e-015
lhumerus -40.8859 6.46042 76.1493
lradius 36.2674
lwrist -12.7126
lhand -10.4399 -38.6739
lfingers 7.12502
lthumb 15.56 -9.27985
rfemur -33.6526 10.2005 20.9568
rtibia 29.3796
rfoot -23.1714 -27.6874
rtoes 23.3852
lfemur 14.3291 -20.8689 -33.8057
ltibia -7.79236e-014
lfoot -21.7336 19.4859
ltoes -18.9064
399
root 7.85175 15.0696 39.3503 -176.149 -1.1608 -181.451
lowerback 6.76283 0.0964185 -2.73843
upperback -4.27046 -0.271548 -0.35977
thorax -8.2971 -0.0262527 1.20138
lowerneck -3.76111 -2.65324 -6.66091
upperneck 9.33141 -3.86665 5.93081
head 3.63328 -1.97168 2.71765
rclavicle -4.16205e-016 2.48481e-015
rhumerus -49.2544 -8.38704 -73.4134
rradius 29.7477
rwrist 25.9676
rhand -1.51623 -52.0507
rfingers 7.12502
rthumb 24.1373 -440.552
lclavicle -4.16205e-016 2.48481e-015
lhumerus -40.6351 6.61591 76.4274
lradius 36.0703
lwrist -13.1365
lhand -10.7013 -38.6509
lfingers 7.12502
lthumb 15.3082 -9.2375
rfemur -33.8065 10.9472 20.5043
rtibia 29.1276
rfoot -23.4962 -28.2271
rtoes 23.2592
lfemur 14.4934 -20.6218 -33.8476
ltibia 1.43125e-014
lfoot -21.6605 18.9929
ltoes -18.4887
400
root 7.85568 15.0547 39.2715 -176.183 -1.25973 -181.434
lowerback 6.79788 0.0214291 -2.64173
upperback -4.22309 -0.358712 -0.356817
thorax -8.26257 -0.0736169 1.16215
lowerneck -4.05296 -2.66602 -6.65017
upperneck 9.51327 -3.8604 5.81299
head 3.7342 -1.96799 2.67588
rclavicle 3.44457e-015 1.2424e-014
rhumerus -49.2045 -8.74515 -73.3095
rradius 29.9762
rwrist 26.6452
rhand -0.246044 -52.507
rfingers 7.12502
rthumb 25.3547 -440.841
lclavicle 3.44457e-015 1.2424e-014
lhumerus -40.3757 7.00721 76.6247
lradius 35.9224
lwrist -13.628
lhand -11.3231 -38.4652
lfingers 7.12502
lthumb 14.7092 -9.00704
rfemur -33.7971 11.4897 20.2845
rtibia 29.0117
rfoot -22.5647 -28.6784
rtoes 21.5214
lfemur 14.8313 -20.3088 -33.8506
ltibia -3.18055e-015
lfoot -21.5292 18.6757
ltoes -18.6986
401
root 7.86359 15.0459 39.1911 -176.272 -1.32058 -181.47
lowerback 7.00009 -0.0160165 -2.6844
upperback -4.2389 -0.421797 -0.381226
thorax -8.39579 -0.100574 1.17021
lowerneck -4.28633 -2.64224 -6.56387
upperneck 9.81771 -3.83789 5.77169
head 3.86111 -1.95613 2.64651
rclavicle -1.76732e-015 -3.27995e-015
rhumerus -49.4158 -8.85112 -73.4611
rradius 30.3876
rwrist 26.558
rhand 0.127888 -52.8311
rfingers 7.12502
rthumb 25.7129 -441.114
lclavicle -1.76732e-015 -3.27995e-015
lhumerus -40.2404 7.48318 76.6893
lradius 35.6058
lwrist -14.4178
lhand -12.2193 -39.1818
lfingers 7.12502
lthumb 13.8457 -9.66261
rfemur -33.7417 11.6214 20.221
rtibia 28.9741
rfoot -20.7602 -28.8025
rtoes 18.0892
lfemur 15.2418 -19.9506 -33.9143
ltibia 1.90833e-014
lfoot -21.4342 18.3203
ltoes -17.8579
402
root 7.87153 15.042 39.108 -176.178 -1.32267 -181.504
lowerback 6.93092 0.0266057 -2.76094
upperback -4.29114 -0.378713 -0.416031
thorax -8.41394 -0.0775673 1.17029
lowerneck -4.29019 -2.63783 -6.35705
upperneck 9.90872 -3.84344 5.64133
head 3.88335 -1.95956 2.57201
rclavicle -3.54085e-016 3.47873e-015
rhumerus -49.6221 -9.03578 -73.571
rradius 30.6846
rwrist 26.2974
rhand -0.351772 -52.3176
rfingers 7.12502
rthumb 25.2534 -440.666
lclavicle -3.54085e-016 3.47873e-015
lhumerus -40.0242 7.85983 76.6458
lradius 34.7792
lwrist -15.6034
lhand -12.7739 -41.4029
lfingers 7.12502
lthumb 13.3112 -11.848
rfemur -33.8658 11.4303 20.2822
rtibia 28.9931
rfoot -19.586 -28.7297
rtoes 15.0363
lfemur 15.4548 -19.5833 -33.8851
ltibia -6.99722e-014
lfoot -21.3409 17.6645
ltoes -14.827
403
root 7.87818 15.0377 39.0216 -175.953 -1.19291 -181.369
lowerback 6.60427 0.123651 -2.65751
upperback -4.31055 -0.228495 -0.389386
thorax -8.24935 -0.0128515 1.11848
lowerneck -4.46067 -2.73258 -6.17647
upperneck 10.003 -3.96082 5.47224
head 3.94114 -2.01546 2.48188
rclavicle 2.12451e-015 8.64713e-015
rhumerus -49.6998 -9.16087 -73.7136
rradius 30.9657
rwrist 25.6573
rhand 0.496141 -52.3841
rfingers 7.12502
rthumb 26.0655 -440.616
lclavicle 2.12451e-015 8.64713e-015
lhumerus -39.7068 7.11319 77.5278
lradius 35.4121
lwrist -13.9991
lhand -11.192 -39.5755
lfingers 7.12502
lthumb 14.8356 -10.1266
rfemur -34.109 11.4579 20.4496
rtibia 29.1006
rfoot -18.466 -28.74
rtoes 12.2015
lfemur 15.5092 -19.1107 -33.6307
ltibia -2.22639e-014
lfoot -21.07 17.1662
ltoes -14.6976
404
root 7.88713 15.0308 38.9356 -175.87 -1.18551 -181.276
lowerback 6.54919 0.16752 -2.56464
upperback -4.32068 -0.156774 -0.363335
thorax -8.23049 0.0175208 1.08397
lowerneck -4.85336 -2.77158 -6.26584
upperneck 10.373 -4.00884 5.51458
head 4.12438 -2.03714 2.50065
rclavicle 5.05969e-015 -4.87022e-015
rhumerus -49.6979 -9.09501 -73.9704
rradius 31.1038
rwrist 24.3312
rhand 0.336223 -51.8896
rfingers 7.12502
rthumb 25.9124 -440.144
lclavicle 5.05969e-015 -4.87022e-015
lhumerus -39.4693 7.12091 77.9616
lradius 35.227
lwrist -14.1304
lhand -11.2143 -39.6766
lfingers 7.12502
lthumb 14.814 -10.2261
rfemur -34.1354 11.4297 20.6062
rtibia 29.2806
rfoot -16.2654 -28.579
rtoes 7.44238
lfemur 15.7353 -18.7253 -33.4658
ltibia 4.13472e-014
lfoot -20.5887 16.885
ltoes -17.4182
405
root 7.89701 15.0221 38.8539 -175.942 -1.4366 -181.334
lowerback 6.8296 0.0782245 -2.63295
upperback -4.34859 -0.289391 -0.335028
thorax -8.41993 -0.0389837 1.17125
lowerneck -5.12789 -2.78793 -6.34749
upperneck 10.6554 -4.0117 5.4185
head 4.2563 -2.04411 2.47984
rclavicle -4.65902e-017 -7.55382e-015
rhumerus -49.5552 -8.9466 -74.1392
rradius 31.1153
rwrist 23.5719
rhand -0.9218 -50.3804
rfingers 7.12502
rthumb 24.7072 -438.805
lclavicle -4.65902e-017 -7.55382e-015
lhumerus -39.388 7.8013 78.0249
lradius 34.6065
lwrist -15.2011
lhand -11.6758 -41.3155
lfingers 7.12502
lthumb 14.3694 -11.8328
rfemur -33.9103 11.0174 20.7057
rtibia 29.4997
rfoot -12.8248 -28.2066
rtoes -4.21363
lfemur 16.1516 -18.5646 -33.5081
ltibia 6.99722e-014
lfoot -19.9819 16.5838
ltoes -19.5263
406
root 7.90377 15.0201 38.7704 -175.981 -1.72916 -181.378
lowerback 7.10719 -0.10299 -2.69614
upperback -4.44163 -0.543714 -0.236905
thorax -8.67264 -0.152086 1.34872
lowerneck -5.15272 -2.7342 -6.34071
upperneck 10.7347 -3.90894 5.1339
head 4.27331 -2.00776 2.3963
rclavicle 2.96624e-016 2.28602e-015
rhumerus -49.4619 -8.45405 -74.352
rradius 31.3363
rwrist 23.2786
rhand -0.995163 -50.3102
rfingers 7.12502
rthumb 24.6368 -438.745
lclavicle 2.96624e-016 2.28602e-015
lhumerus -39.5241 8.4306 78.2437
lradius 34.362
lwrist -15.8399
lhand -11.8436 -41.8949
lfingers 7.12502
lthumb 14.2077 -12.4008
rfemur -33.6725 10.5289 20.8156
rtibia 29.7469
rfoot -12.9012 -27.3174
rtoes -4.3973
lfemur 16.4901 -18.4516 -33.5205
ltibia 5.725e-014
lfoot -19.5402 16.2533
ltoes -20.6642
407
root 7.91194 15.0163 38.6835 -175.913 -1.89635 -181.288
lowerback 7.12872 -0.141545 -2.5166
upperback -4.44384 -0.57903 -0.270933
thorax -8.68711 -0.180774 1.2171
lowerneck -5.5527 -2.7662 -6.24566
upperneck 11.0129 -3.96022 5.21233
head 4.42772 -2.02111 2.39612
rclavicle -3.4104e-015 5.26779e-015
rhumerus -49.3782 -8.40762 -74.7161
rradius 31.6306
rwrist 22.5049
rhand -0.561554 -50.8992
rfingers 7.12502
rthumb 25.0524 -439.276
lclavicle -3.4104e-015 5.26779e-015
lhumerus -39.3201 8.29848 78.7195
lradius 34.3588
lwrist -16.2199
lhand -12.232 -40.8067
lfingers 7.12502
lthumb 13.8334 -11.2867
rfemur -33.5724 10.2695 21.0288
rtibia 30.0121
rfoot -14.1634 -26.574
rtoes -1.12155
lfemur 16.7482 -18.2377 -33.3392
ltibia -1.27222e-013
lfoot -19.4887 15.5946
ltoes -19.4675
408
root 7.92535 15.0078 38.5926 -175.834 -1.94569 -181.143
lowerback 7.08084 -0.151976 -2.45869
upperback -4.52774 -0.582796 -0.173636
thorax -8.74941 -0.182819 1.28837
lowerneck -5.60233 -2.73083 -6.49341
upperneck 11.2387 -3.93601 5.4615
head 4.51263 -2.01091 2.51408
rclavicle -1.15233e-015 -3.37934e-015
rhumerus -49.3869 -8.13854 -74.9051
rradius 31.8879
rwrist 22.1051
rhand 0.189292 -51.2587
rfingers 7.12502
rthumb 25.7717 -439.533
lclavicle -1.15233e-015 -3.37934e-015
lhumerus -39.3551 7.78431 79.6973
lradius 36.4552
lwrist -12.0493
lhand -6.36237 -35.7535
lfingers 7.12502
lthumb 19.484 -6.70971
rfemur -33.48 10.2509 21.2844
rtibia 30.2682
rfoot -14.6017 -26.314
rtoes -0.302336
lfemur 17.0097 -17.9097 -33.0915
ltibia 9.54166e-015
lfoot -19.114 15.1306
ltoes -20.7713
409
root 7.93723 15.0047 38.4944 -175.782 -1.94576 -181.084
lowerback 7.02246 -0.157768 -2.55105
upperback -4.62694 -0.596677 -0.0558322
thorax -8.82114 -0.180396 1.46745
lowerneck -5.49769 -2.6842 -6.56532
upperneck 11.2644 -3.87203 5.41593
head 4.49945 -1.98844 2.51683
rclavicle 5.5287e-016 -6.65929e-015
rhumerus -49.4376 -7.75177 -74.9374
rradius 32.1576
rwrist 22.375
rhand 1.09172 -51.4876
rfingers 7.12502
rthumb 26.6356 -439.634
lclavicle 5.5287e-016 -6.65929e-015
lhumerus -39.7055 8.5379 79.7097
lradius 35.6343
lwrist -14.1555
lhand -8.7652 -39.5306
lfingers 7.12502
lthumb 17.1724 -10.2694
rfemur -33.2744 10.0816 21.5247
rtibia 30.4952
rfoot -14.4896 -26.2813
rtoes 1.76073
lfemur 17.3392 -17.5285 -32.9594
ltibia 1.27222e-014
lfoot -18.6895 14.7861
ltoes -22.6524
